<?xml version="1.0" standalone="no"?>
<!DOCTYPE svg PUBLIC "-//W3C//DTD SVG 20010904//EN"
 "http://www.w3.org/TR/2001/REC-SVG-20010904/DTD/svg10.dtd">
<svg version="1.0" xmlns="http://www.w3.org/2000/svg"
 width="1280.000000pt" height="1210.000000pt" viewBox="0 0 1280.000000 1210.000000"
 preserveAspectRatio="xMidYMid meet">
<metadata>
Created by potrace 1.15, written by Peter Selinger 2001-2017
</metadata>
<g transform="translate(0.000000,1210.000000) scale(0.100000,-0.100000)"
fill="#000000" stroke="none">
<path d="M3037 12084 c-206 -37 -382 -129 -533 -279 -132 -131 -214 -274 -266
-465 -33 -123 -33 -357 0 -480 52 -190 133 -333 266 -466 134 -133 288 -220
476 -267 123 -31 339 -30 465 1 200 50 416 187 540 345 110 138 179 292 209
463 94 535 -276 1054 -820 1149 -105 18 -233 18 -337 -1z"/>
<path d="M10050 12075 c-392 -74 -695 -356 -796 -740 -23 -86 -26 -121 -26
-245 0 -124 3 -159 26 -245 139 -531 674 -855 1201 -726 355 87 621 344 731
706 26 83 28 103 28 265 0 162 -2 182 -28 265 -132 438 -491 718 -936 731 -81
2 -151 -2 -200 -11z"/>
<path d="M6298 10268 l-3 -923 -58 -7 c-61 -8 -134 -40 -192 -84 -19 -14 -182
-202 -362 -416 -223 -267 -328 -386 -333 -377 -4 8 -33 103 -64 211 -31 109
-68 231 -82 270 -119 330 -378 624 -690 781 -89 45 -225 93 -339 120 -87 20
-115 21 -933 24 -920 4 -911 5 -1095 -54 -353 -111 -699 -413 -858 -747 -36
-75 -69 -191 -289 -996 -52 -191 -247 -900 -326 -1185 -42 -154 -79 -292 -82
-308 l-4 -27 437 2 438 3 178 645 c264 959 268 973 313 1135 l42 150 107 3
c59 1 107 0 107 -2 0 -5 -506 -1889 -516 -1918 -5 -17 73 -18 1550 -18 856 0
1556 2 1556 4 0 3 -63 224 -141 493 -340 1182 -409 1422 -409 1432 0 7 37 11
109 11 l109 0 30 -92 c38 -116 67 -207 182 -578 51 -162 105 -322 120 -355 58
-127 167 -236 271 -270 115 -39 260 -1 372 96 26 22 303 348 615 725 629 758
641 775 650 907 5 85 -13 162 -53 221 -14 20 -25 39 -25 41 0 3 126 5 280 5
l280 0 0 1000 0 1000 -445 0 -445 0 -2 -922z"/>
<path d="M8782 9865 c-186 -29 -308 -92 -438 -226 -58 -60 -1886 -2248 -2002
-2396 -157 -201 -144 -443 34 -619 181 -180 443 -191 627 -25 22 20 461 533
975 1141 514 608 941 1112 948 1120 12 12 14 -178 14 -1263 l0 -1277 -4470 0
-4470 0 0 -565 0 -565 4470 0 4470 0 3 -2348 c3 -2616 -4 -2376 71 -2527 46
-92 101 -153 189 -213 106 -70 196 -97 327 -97 121 0 176 13 275 64 125 64
216 176 267 326 l23 70 3 2363 2 2362 115 0 115 0 3 -2337 c2 -2170 4 -2342
20 -2401 29 -105 83 -200 156 -272 112 -111 234 -160 396 -160 276 0 481 159
562 435 17 56 18 199 21 2398 l2 2337 655 0 655 0 0 565 0 565 -287 2 -288 3
-5 1500 -5 1500 -27 67 c-39 97 -74 153 -141 225 -104 110 -230 183 -407 232
l-95 26 -1340 2 c-1056 1 -1358 -1 -1423 -12z"/>
</g>
</svg>
